<svg width="43" height="35" viewBox="0 0 43 35" fill="none" xmlns="http://www.w3.org/2000/svg">
<path d="M17.5638 13.1286L16.6764 12.2275C16.5428 12.0918 16.5428 11.8726 16.6764 11.737C16.81 11.6013 17.0259 11.6013 17.1595 11.737L17.807 12.391L19.8215 10.3453C19.9551 10.2096 20.171 10.2096 20.3046 10.3453C20.4382 10.481 20.4382 10.7002 20.3046 10.8359L18.0468 13.1286C17.9166 13.2643 17.6974 13.2643 17.5638 13.1286Z" fill="#F2F0F0"/>
<path fill-rule="evenodd" clip-rule="evenodd" d="M30.7672 5.47708H26.3175C25.8704 4.15492 24.6994 3.19751 23.3156 3.19751C21.9317 3.19751 20.7607 4.15492 20.3136 5.47708H15.864C14.693 5.47708 13.7349 6.50288 13.7349 7.75664V17.1613H16.3423C16.4726 17.1001 16.6162 17.0661 16.767 17.0661H30.3928C30.5435 17.0661 30.6872 17.1001 30.8174 17.1613H32.8962V7.75664C32.8962 6.50288 31.9382 5.47708 30.7672 5.47708ZM24.3801 6.61686C24.3801 5.98998 23.9011 5.47708 23.3156 5.47708C22.7301 5.47708 22.2511 5.98998 22.2511 6.61686C22.2511 7.24374 22.7301 7.75664 23.3156 7.75664C23.9011 7.75664 24.3801 7.24374 24.3801 6.61686ZM24.6958 14.6101H30.3928C30.9783 14.6101 31.4573 14.0972 31.4573 13.4703C31.4573 12.8434 30.9783 12.3305 30.3928 12.3305H24.6958C24.1103 12.3305 23.6313 12.8434 23.6313 13.4703C23.6313 14.0972 24.1103 14.6101 24.6958 14.6101ZM15.8165 9.01631L18.2147 7.93431C18.3894 7.85429 18.595 7.85429 18.7697 7.93431L21.1679 9.01631C21.4146 9.12764 21.5756 9.37814 21.5756 9.65298V11.2882C21.5756 13.219 20.26 15.0247 18.4922 15.4631C16.7244 15.0247 15.4088 13.219 15.4088 11.2882V9.65298C15.4088 9.37814 15.5698 9.12764 15.8165 9.01631ZM24.3801 11.2882H30.0771C30.6626 11.2882 31.1416 10.7753 31.1416 10.1484C31.1416 9.52149 30.6626 9.00858 30.0771 9.00858H24.3801C23.7946 9.00858 23.3156 9.52149 23.3156 10.1484C23.3156 10.7753 23.7946 11.2882 24.3801 11.2882Z" fill="#F2F0F0"/>
<path d="M19.8949 19.3457V21.6253H25.613V19.3457H19.8949Z" fill="#F2F0F0"/>
<path d="M19.8949 23.9048V25.9932H25.613V23.9048H19.8949Z" fill="#F2F0F0"/>
<path d="M8.58275 18.2543V18.6697C7.67554 18.309 6.70275 18.1231 5.72995 18.1231C4.17785 18.1231 2.62576 18.5932 1.30319 19.5332C0.745748 19.9266 0.680167 20.7246 1.1611 21.2055L3.97018 24.0146H5.18344V25.2278C6.12344 26.1678 7.34763 26.6597 8.58275 26.7143V29.1846H6.3967C5.79553 29.1846 5.30367 29.6764 5.30367 30.2776V32.4637C5.30367 33.666 6.2874 34.6497 7.48973 34.6497H18.42C20.2344 34.6497 21.6991 33.1851 21.6991 31.3706V18.2543C21.6991 17.6531 21.2072 17.1613 20.6061 17.1613H9.67578C9.07462 17.1613 8.58275 17.6531 8.58275 18.2543ZM7.36949 24.1676V21.8176H4.87739L3.74064 20.6808C4.36367 20.4404 5.04135 20.3092 5.72995 20.3092C7.19461 20.3092 8.56089 20.8776 9.59927 21.905L11.1404 23.4462L10.9218 23.6648C10.3644 24.2222 9.62113 24.5392 8.82322 24.5392C8.3095 24.5392 7.8067 24.4081 7.36949 24.1676ZM19.513 31.3706C19.513 31.9718 19.0212 32.4637 18.42 32.4637C17.8188 32.4637 17.327 31.9718 17.327 31.3706V30.2776C17.327 29.6764 16.8351 29.1846 16.2339 29.1846H10.7688V26.3536C11.3918 26.1022 11.9711 25.7306 12.4739 25.2278L12.6925 25.0092L15.7858 28.0916H17.327V26.5504L10.7688 20.025V19.3473H19.513V31.3706Z" fill="#F2F0F0"/>
<path fill-rule="evenodd" clip-rule="evenodd" d="M41.0379 17.1613H25.4921C24.4233 17.1613 23.5488 18.0357 23.5488 19.1045V32.7071C23.5488 33.7759 24.4233 34.6503 25.4921 34.6503H41.0379C42.1066 34.6503 42.9811 33.7759 42.9811 32.7071V19.1045C42.9811 18.0357 42.1066 17.1613 41.0379 17.1613ZM30.3501 30.7639H27.4353C26.9009 30.7639 26.4637 30.3266 26.4637 29.7922C26.4637 29.2579 26.9009 28.8206 27.4353 28.8206H30.3501C30.8845 28.8206 31.3217 29.2579 31.3217 29.7922C31.3217 30.3266 30.8845 30.7639 30.3501 30.7639ZM30.3501 26.8774H27.4353C26.9009 26.8774 26.4637 26.4402 26.4637 25.9058C26.4637 25.3714 26.9009 24.9342 27.4353 24.9342H30.3501C30.8845 24.9342 31.3217 25.3714 31.3217 25.9058C31.3217 26.4402 30.8845 26.8774 30.3501 26.8774ZM30.3501 22.991H27.4353C26.9009 22.991 26.4637 22.5537 26.4637 22.0193C26.4637 21.485 26.9009 21.0477 27.4353 21.0477H30.3501C30.8845 21.0477 31.3217 21.485 31.3217 22.0193C31.3217 22.5537 30.8845 22.991 30.3501 22.991ZM39.7748 25.0508L36.6948 28.1308C36.3158 28.5097 35.694 28.5097 35.3151 28.1308L33.9451 26.7511C33.5662 26.3722 33.5662 25.7601 33.9451 25.3811C34.324 25.0022 34.9361 25.0022 35.3151 25.3811L36.0049 26.071L38.4048 23.6711C38.7837 23.2922 39.3958 23.2922 39.7748 23.6711L39.7845 23.6808C40.1537 24.0597 40.1537 24.6816 39.7748 25.0508Z" fill="#F2F0F0"/>
</svg>
