<svg width="20" height="20" viewBox="0 0 20 20" fill="none" xmlns="http://www.w3.org/2000/svg">
<path d="M10.7201 0.0300071C4.63007 -0.399993 -0.399932 4.63001 0.0300681 10.72C0.390068 16.01 5.01007 20 10.3101 20H14.0001C14.5501 20 15.0001 19.55 15.0001 19C15.0001 18.45 14.5501 18 14.0001 18H10.3301C6.60007 18 3.18007 15.58 2.25007 11.97C0.760068 6.17001 6.16007 0.760007 11.9601 2.26001C15.5801 3.18001 18.0001 6.60001 18.0001 10.33V11.43C18.0001 12.22 17.2901 13 16.5001 13C15.7101 13 15.0001 12.22 15.0001 11.43V10.18C15.0001 7.67001 13.2201 5.41001 10.7401 5.06001C7.34007 4.57001 4.47007 7.51001 5.08007 10.93C5.42007 12.84 6.91007 14.42 8.80007 14.87C10.6401 15.3 12.3901 14.71 13.5401 13.54C14.4301 14.76 16.2101 15.4 17.8401 14.75C19.1801 14.22 20.0001 12.85 20.0001 11.41V10.32C20.0001 5.01001 16.0101 0.390007 10.7201 0.0300071ZM10.0001 13C8.34007 13 7.00007 11.66 7.00007 10C7.00007 8.34001 8.34007 7.00001 10.0001 7.00001C11.6601 7.00001 13.0001 8.34001 13.0001 10C13.0001 11.66 11.6601 13 10.0001 13Z" fill="#F2F0F0"/>
</svg>
