<svg width="40" height="32" viewBox="0 0 40 32" fill="none" xmlns="http://www.w3.org/2000/svg">
<path fill-rule="evenodd" clip-rule="evenodd" d="M8.80005 6.00002C8.80005 5.28502 8.20005 4.70002 7.46671 4.70002C6.73338 4.70002 6.13338 5.28502 6.13338 6.00002V7.30002C6.13338 8.01502 6.73338 8.60002 7.46671 8.60002C8.20005 8.60002 8.80005 8.01502 8.80005 7.30002V6.00002ZM8.80005 15.1C8.80005 14.385 8.20005 13.8 7.46671 13.8C6.73338 13.8 6.13338 14.385 6.13338 15.1V19C6.13338 19.715 6.73338 20.3 7.46671 20.3C8.20005 20.3 8.80005 19.715 8.80005 19V15.1Z" fill="#F2F0F0"/>
<path fill-rule="evenodd" clip-rule="evenodd" d="M19.4667 0.813018L3.46672 0.800018C2.00005 0.800018 0.800049 1.95702 0.800049 3.40002V24.2C0.800049 25.63 2.00005 26.8 3.46672 26.8H11.1816V24.2H4.80005C4.06672 24.2 3.46672 23.615 3.46672 22.9V13.774C3.46672 13.059 4.06672 12.474 4.80005 12.474H18.1334C18.7688 12.474 19.3042 12.9133 19.4358 13.4957H22.1334V3.40002C22.1334 1.95702 20.9334 0.813018 19.4667 0.813018ZM4.80005 9.90002H18.1334C18.8667 9.90002 19.4667 9.31502 19.4667 8.60002V4.70002C19.4667 3.98502 18.8667 3.40002 18.1334 3.40002H4.80005C4.06672 3.40002 3.46672 3.98502 3.46672 4.70002V8.60002C3.46672 9.31502 4.06672 9.90002 4.80005 9.90002Z" fill="#F2F0F0"/>
<path d="M37.1668 20C35.7368 20 34.5667 21.17 34.5667 22.6V26.5H16.3667V22.6C16.3667 21.17 15.1967 20 13.7667 20C12.3367 20 11.1667 21.17 11.1667 22.6V29.1C11.1667 30.53 12.3367 31.7 13.7667 31.7H37.1668C38.5968 31.7 39.7668 30.53 39.7668 29.1V22.6C39.7668 21.17 38.5968 20 37.1668 20ZM33.2668 13.5H17.6667C16.2367 13.5 15.0667 14.67 15.0667 16.1V18.895C16.5747 19.428 17.6667 20.858 17.6667 22.561V25.2H33.2668V22.561C33.2668 20.871 34.3587 19.441 35.8668 18.895V16.1C35.8668 14.67 34.6968 13.5 33.2668 13.5Z" fill="#F2F0F0"/>
</svg>
