<svg width="40" height="36" viewBox="0 0 40 36" fill="none" xmlns="http://www.w3.org/2000/svg">
<path d="M39.8 11.78L37.7 3.04C37.26 1.24 35.7 0 33.88 0H29.46H25.44H22H18H14.56H10.52H6.10001C4.30001 0 2.72001 1.26 2.30001 3.04L0.200013 11.78C-0.279987 13.82 0.160013 15.9 1.44001 17.54C1.60001 17.76 1.82001 17.92 2.00001 18.12V32C2.00001 34.2 3.80001 36 6.00001 36H34C36.2 36 38 34.2 38 32V18.12C38.18 17.94 38.4 17.76 38.56 17.56C39.84 15.92 40.3 13.82 39.8 11.78ZM10.04 4L8.88001 13.72C8.72001 15.02 7.68001 16 6.46001 16C5.48001 16 4.86001 15.42 4.60001 15.06C4.08001 14.4 3.90001 13.54 4.10001 12.72L6.10001 4H10.04ZM33.82 3.98L35.92 12.72C36.12 13.56 35.94 14.4 35.42 15.06C35.14 15.42 34.54 16 33.54 16C32.32 16 31.26 15.02 31.12 13.72L29.96 4L33.82 3.98ZM27.02 13.04C27.12 13.82 26.88 14.6 26.36 15.18C25.9 15.7 25.26 16 24.44 16C23.1 16 22 14.82 22 13.38V4H25.92L27.02 13.04ZM18 13.38C18 14.82 16.9 16 15.42 16C14.74 16 14.12 15.7 13.64 15.18C13.14 14.6 12.9 13.82 12.98 13.04L14.08 4H18V13.38ZM32 32H8.00001C6.90001 32 6.00001 31.1 6.00001 30V19.94C6.16001 19.96 6.30001 20 6.46001 20C8.20001 20 9.78001 19.28 10.94 18.1C12.14 19.3 13.74 20 15.56 20C17.3 20 18.86 19.28 20.02 18.14C21.2 19.28 22.8 20 24.6 20C26.28 20 27.88 19.3 29.08 18.1C30.24 19.28 31.82 20 33.56 20C33.72 20 33.86 19.96 34.02 19.94V30C34 31.1 33.1 32 32 32Z" fill="#F2F0F0"/>
</svg>
