<svg width="40" height="27" viewBox="0 0 40 27" fill="none" xmlns="http://www.w3.org/2000/svg">
<path d="M24.2222 24.8661V17.8239H29.856V24.8661C29.856 25.6407 30.4898 26.2745 31.2644 26.2745H35.4897C36.2644 26.2745 36.8982 25.6407 36.8982 24.8661V15.007H39.2925C39.9404 15.007 40.2503 14.2042 39.7573 13.7816L27.9827 3.17604C27.4475 2.69717 26.6306 2.69717 26.0954 3.17604L14.3208 13.7816C13.842 14.2042 14.1377 15.007 14.7856 15.007H17.18V24.8661C17.18 25.6407 17.8138 26.2745 18.5884 26.2745H22.8138C23.5884 26.2745 24.2222 25.6407 24.2222 24.8661Z" fill="#F2F0F0"/>
<path d="M12.011 0.359153C12.5462 -0.119718 13.3631 -0.119718 13.8983 0.359153L16.074 2.3188L4.46945 13.2586C3.97497 13.7153 4.28038 14.5829 4.94939 14.5829H8.45066V23.4576H4.50399C3.72935 23.4576 3.09555 22.8238 3.09555 22.0492V12.1901H0.701196C0.0533123 12.1901 -0.242461 11.3873 0.23641 10.9647L12.011 0.359153Z" fill="#F2F0F0"/>
<path d="M19.0532 1.7676C19.5884 1.28873 20.4053 1.28873 20.9405 1.7676L23.1162 3.72724L11.5117 14.6671C11.0172 15.1237 11.3226 15.9914 11.9916 15.9914H15.4929V24.8661H11.5462C10.7716 24.8661 10.1378 24.2323 10.1378 23.4576V13.5985H7.74341C7.09553 13.5985 6.79976 12.7957 7.27863 12.3732L19.0532 1.7676Z" fill="#F2F0F0"/>
</svg>
