<svg width="34" height="33" viewBox="0 0 34 33" fill="none" xmlns="http://www.w3.org/2000/svg">
<path fill-rule="evenodd" clip-rule="evenodd" d="M30.6 16C30.6 14.765 31.331 13.6925 32.402 13.14C33.422 12.6038 34 11.4988 34 10.3775V6.25C34 4.4625 32.47 3 30.6 3H3.4C1.53 3 0.017 4.44625 0.017 6.23375V10.3775C0.017 11.4988 0.578 12.6038 1.615 13.1238C2.686 13.6925 3.4 14.765 3.4 16C3.4 17.235 2.669 18.3238 1.598 18.86C0.578 19.3963 0 20.5013 0 21.6225V25.75C0 27.5375 1.53 29 3.4 29H30.6C32.47 29 34 27.5375 34 25.75V21.6225C34 20.5013 33.422 19.3963 32.402 18.86C31.331 18.3075 30.6 17.235 30.6 16ZM21.8081 10.3284H23.7313C24.7891 10.3284 25.6545 11.1314 25.6545 12.1128V13.0049C25.6545 15.2799 23.8082 17.1356 21.4331 17.4122C20.8272 18.7504 19.5291 19.7585 17.9616 20.0529V22.8186H20.8465C21.3754 22.8186 21.8081 23.2201 21.8081 23.7108C21.8081 24.2015 21.3754 24.603 20.8465 24.603H13.1535C12.6246 24.603 12.1919 24.2015 12.1919 23.7108C12.1919 23.2201 12.6246 22.8186 13.1535 22.8186H16.0384V20.0529C14.471 19.7585 13.1728 18.7504 12.5669 17.4122C10.1918 17.1356 8.34546 15.2799 8.34546 13.0049V12.1128C8.34546 11.1314 9.21091 10.3284 10.2687 10.3284H12.1919V9.43628C12.1919 8.94559 12.6246 8.54412 13.1535 8.54412H20.8465C21.3754 8.54412 21.8081 8.94559 21.8081 9.43628V10.3284Z" fill="url(#paint0_linear)"/>
<path d="M23.7313 13.0049C23.7313 14.1647 22.9236 15.1461 21.8081 15.5208V12.1128H23.7313V13.0049Z" fill="url(#paint1_linear)"/>
<path d="M10.2687 13.0049V12.1128H12.1919V15.5208C11.0764 15.1461 10.2687 14.1647 10.2687 13.0049Z" fill="url(#paint2_linear)"/>
<defs>
<linearGradient id="paint0_linear" x1="-1.54546" y1="16.8603" x2="33.1036" y2="29.6368" gradientUnits="userSpaceOnUse">
<stop stop-color="#E0AA3E" stop-opacity="0.37"/>
<stop offset="0.502101" stop-color="#F9F295"/>
<stop offset="0.988073" stop-color="#E0AA3E" stop-opacity="0.22"/>
</linearGradient>
<linearGradient id="paint1_linear" x1="-1.54546" y1="16.8603" x2="33.1036" y2="29.6368" gradientUnits="userSpaceOnUse">
<stop stop-color="#E0AA3E" stop-opacity="0.37"/>
<stop offset="0.502101" stop-color="#F9F295"/>
<stop offset="0.988073" stop-color="#E0AA3E" stop-opacity="0.22"/>
</linearGradient>
<linearGradient id="paint2_linear" x1="-1.54546" y1="16.8603" x2="33.1036" y2="29.6368" gradientUnits="userSpaceOnUse">
<stop stop-color="#E0AA3E" stop-opacity="0.37"/>
<stop offset="0.502101" stop-color="#F9F295"/>
<stop offset="0.988073" stop-color="#E0AA3E" stop-opacity="0.22"/>
</linearGradient>
</defs>
</svg>
