<svg width="36" height="36" viewBox="0 0 36 36" fill="none" xmlns="http://www.w3.org/2000/svg">
<path d="M25.9998 23H24.4198L23.8598 22.46C26.2598 19.66 27.4998 15.84 26.8198 11.78C25.8798 6.22003 21.2398 1.78003 15.6398 1.10003C7.17979 0.0600306 0.0597864 7.18003 1.09979 15.64C1.77979 21.24 6.21979 25.88 11.7798 26.82C15.8398 27.5 19.6598 26.26 22.4598 23.86L22.9998 24.42V26L31.4998 34.5C32.3198 35.32 33.6598 35.32 34.4798 34.5C35.2998 33.68 35.2998 32.34 34.4798 31.52L25.9998 23ZM13.9998 23C9.01979 23 4.99979 18.98 4.99979 14C4.99979 9.02003 9.01979 5.00003 13.9998 5.00003C18.9798 5.00003 22.9998 9.02003 22.9998 14C22.9998 18.98 18.9798 23 13.9998 23Z" fill="#F2F0F0"/>
</svg>
