<svg width="20" height="21" viewBox="0 0 20 21" fill="none" xmlns="http://www.w3.org/2000/svg">
<path d="M20 9.54297H15.83L19.07 6.43797L17.66 5.07714L13 9.54297H11V7.6263L15.66 3.16047L14.24 1.80922L11 4.91422V0.917969H9V4.91422L5.76 1.80922L4.34 3.16047L9 7.6263V9.54297H7L2.34 5.07714L0.93 6.43797L4.17 9.54297H0V11.4596H4.17L0.93 14.5646L2.34 15.9255L7 11.4596H9V13.3763L4.34 17.8421L5.76 19.1934L9 16.0884V20.0846H11V16.0884L14.24 19.1934L15.66 17.8421L11 13.3763V11.4596H13L17.66 15.9255L19.07 14.5646L15.83 11.4596H20V9.54297Z" fill="white"/>
</svg>
