<svg width="20" height="25" viewBox="0 0 20 25" fill="none" xmlns="http://www.w3.org/2000/svg">
<path d="M19.4286 2.45604C19.4286 1.72211 18.8398 1.06575 17.9968 0.859978C16.6814 0.538812 13.8936 0 10.0004 0C9.06344 0 8.12374 0.0332696 7.20737 0.0988318C6.64487 0.139088 6.71938 0.869358 7.28259 0.828956C8.17404 0.765153 9.08841 0.732811 10.0004 0.732811C13.7838 0.732811 16.4794 1.25306 17.7495 1.56323C18.2204 1.67819 18.5492 2.04533 18.5492 2.45609V14.6866H1.45158V2.46664C1.45158 2.05329 1.7841 1.68517 2.26019 1.57154C2.92318 1.4133 3.64146 1.27319 4.39508 1.15506C4.9499 1.0681 4.78816 0.347597 4.23251 0.434899C3.45221 0.557181 2.70715 0.702619 2.01813 0.867111C1.16684 1.0703 0.572266 1.72807 0.572266 2.46669V18.4774C0.572266 19.2114 1.16104 19.8677 2.004 20.0735C2.33623 20.1547 2.76273 20.2496 3.27692 20.3464V21.2395C3.27692 21.7689 3.68636 22.227 4.29583 22.3794C4.73241 22.4885 5.3985 22.6322 6.2692 22.7542V24.6469C6.2692 25.1173 7.14857 25.118 7.14857 24.6469V22.8608C7.41156 22.8879 7.68833 22.9123 7.97829 22.933V24.6469C7.97829 25.1173 8.85766 25.118 8.85766 24.6469V22.9814C9.2219 22.9958 9.60267 23.004 10.0004 23.004C10.3844 23.004 10.7656 22.9962 11.1432 22.9808V24.6469C11.1432 25.1173 12.0226 25.118 12.0226 24.6469V22.9304C12.3015 22.9099 12.5782 22.885 12.8523 22.8559V24.6469C12.8523 25.1173 13.7317 25.118 13.7317 24.6469V22.7465C13.9457 22.7159 14.1582 22.683 14.3685 22.647C14.9215 22.5525 14.7455 21.8346 14.1916 21.9292C11.0733 22.4625 7.6103 22.4426 4.54844 21.6774C4.31388 21.6188 4.1563 21.4427 4.1563 21.2394V20.4978C5.62925 20.7295 7.6052 20.9335 10.0004 20.9335C12.3584 20.9335 14.3499 20.7226 15.8446 20.4853V21.2325C15.8446 21.703 16.724 21.7037 16.724 21.2325V20.3331C17.2274 20.2385 17.65 20.1458 17.9827 20.0664C18.834 19.8632 19.4286 19.2055 19.4286 18.4668V2.45604H19.4286ZM17.7406 19.3619C16.4282 19.6752 13.6776 20.2006 10.0004 20.2006C6.21696 20.2006 3.52133 19.6804 2.25122 19.3702C1.78041 19.2553 1.45158 18.8881 1.45158 18.4773V15.4193H18.5492V18.4668C18.5492 18.8802 18.2167 19.2483 17.7406 19.3619Z" fill="white"/>
</svg>
