<svg width="20" height="16" viewBox="0 0 20 16" fill="none" xmlns="http://www.w3.org/2000/svg">
<path d="M4.15 5.97C3.69 5.51 3.77 4.73 4.33 4.4C4.73 4.18 5.21 4 5.75 4C6.55 4 7.14 4.39 7.56 4.67C7.87 4.88 8.07 5 8.25 5C8.38 5 8.51 4.95 8.64 4.88C9.03 4.66 9.52 4.72 9.84 5.04C10.3 5.5 10.22 6.28 9.66 6.6C9.27 6.83 8.79 7 8.25 7C7.46 7 6.88 6.62 6.46 6.34C6.13 6.12 5.94 6 5.75 6C5.62 6 5.49 6.05 5.36 6.12C4.96 6.35 4.47 6.28 4.15 5.97ZM5.75 11C5.94 11 6.13 11.12 6.46 11.34C6.88 11.62 7.46 12 8.25 12C8.79 12 9.27 11.83 9.66 11.6C10.22 11.28 10.3 10.5 9.84 10.04C9.52 9.72 9.03 9.66 8.64 9.88C8.51 9.95 8.38 10 8.25 10C8.07 10 7.87 9.88 7.56 9.67C7.14 9.39 6.55 9 5.75 9C5.21 9 4.73 9.18 4.33 9.4C3.77 9.73 3.69 10.51 4.15 10.96C4.47 11.28 4.96 11.34 5.35 11.12C5.49 11.05 5.62 11 5.75 11ZM20 2V14C20 15.1 19.1 16 18 16H2C0.9 16 0 15.1 0 14V2C0 0.9 0.9 0 2 0H18C19.1 0 20 0.9 20 2ZM12 2H2V14H12V2ZM17 12C17 11.45 16.55 11 16 11C15.45 11 15 11.45 15 12C15 12.55 15.45 13 16 13C16.55 13 17 12.55 17 12ZM17 8C17 7.45 16.55 7 16 7C15.45 7 15 7.45 15 8C15 8.55 15.45 9 16 9C16.55 9 17 8.55 17 8ZM17 3H15V5H17V3Z" fill="#F2F0F0"/>
</svg>
