<svg width="19" height="19" viewBox="0 0 19 19" fill="none" xmlns="http://www.w3.org/2000/svg">
<path d="M18.7217 3.82654C18.8754 3.82654 19 3.70197 19 3.54822V2.25659C19 1.89923 18.4434 1.89871 18.4434 2.25659V2.62405H17.5535V2.25659C17.5535 2.10285 17.4289 1.97827 17.2752 1.97827H16.5607V0.89134C16.5607 0.401978 16.1625 0.00390625 15.6732 0.00390625H15.1123C14.6229 0.00390625 14.2248 0.402016 14.2248 0.89134V1.97827H13.6143V0.907482C13.6143 0.418121 13.2162 0.0200117 12.7268 0.0200117H12.1659C11.6765 0.0200117 11.2785 0.418158 11.2785 0.907482V1.97827H10.6679V0.907482C10.6679 0.418121 10.2698 0.0200117 9.78051 0.0200117H9.21953C8.73017 0.0200117 8.33206 0.418158 8.33206 0.907482V1.97827H7.72153V0.907482C7.72153 0.418121 7.32342 0.0200117 6.83406 0.0200117H6.27308C5.78372 0.0200117 5.38561 0.418158 5.38561 0.907482V1.97827H4.77509V0.907482C4.77509 0.418121 4.37698 0.0200117 3.88762 0.0200117H3.32674C2.83742 0.0200117 2.43931 0.418158 2.43931 0.907482V1.97827H1.86497C1.63422 1.97827 1.44649 2.16601 1.44649 2.39672V3.40802C1.44649 3.63881 1.63422 3.82651 1.86497 3.82651H2.43931V15.2929H1.55859V15.0146C1.55859 14.8609 1.43398 14.7363 1.28027 14.7363H1.05762V14.0787C1.33586 13.998 1.54004 13.7414 1.54004 13.4375C1.54004 13.0692 1.24038 12.7695 0.87207 12.7695H0.686523C0.318213 12.7695 0.0185547 13.0692 0.0185547 13.4375C0.0185547 13.7414 0.22273 13.998 0.500977 14.0787V14.7363H0.27832C0.124613 14.7363 0 14.8609 0 15.0146V16.666C0 16.9846 0.192375 17.2587 0.466873 17.3794V18.7255C0.466873 19.0829 1.02351 19.0834 1.02351 18.7255V17.4055C1.33386 17.3028 1.55859 17.0104 1.55859 16.666V15.8496H2.43931V16.902C2.43931 17.3914 2.83742 17.7895 3.32674 17.7895H3.88773C4.37709 17.7895 4.7752 17.3914 4.7752 16.902V16.6032H5.38572V16.902C5.38572 17.3908 5.78294 17.7885 6.27152 17.7894V18.7256C6.27152 19.0829 6.82816 19.0835 6.82816 18.7256V17.7895H6.83414C7.3235 17.7895 7.72161 17.3914 7.72161 16.902V16.6032H8.33213V16.902C8.33213 17.3914 8.73024 17.7895 9.2196 17.7895H9.78058C10.2699 17.7895 10.668 17.3914 10.668 16.902V16.6032H11.2785V16.902C11.2785 17.3914 11.6767 17.7895 12.166 17.7895H12.1719V18.7256C12.1719 19.0829 12.7285 19.0835 12.7285 18.7256V17.7894C13.2171 17.7885 13.6143 17.3908 13.6143 16.902V16.6032H14.2248V16.8859C14.2248 17.3753 14.6229 17.7734 15.1123 17.7734H15.6732C16.1626 17.7734 16.5607 17.3752 16.5607 16.8859V15.8496H17.4414V16.666C17.4414 17.0103 17.6661 17.3027 17.9765 17.4055V18.7255C17.9765 19.0829 18.5331 19.0834 18.5331 18.7255V17.3794C18.8076 17.2587 19 16.9846 19 16.666V15.0146C19 14.8609 18.8754 14.7363 18.7217 14.7363H18.499V14.0787C18.7773 13.998 18.9814 13.7414 18.9814 13.4375C18.9814 13.0692 18.6818 12.7695 18.3135 12.7695H18.1279C17.7596 12.7695 17.46 13.0692 17.46 13.4375C17.46 13.7414 17.6641 13.998 17.9424 14.0787V14.7363H17.7197C17.566 14.7363 17.4414 14.8609 17.4414 15.0146V15.2929H16.5607V9.57809C16.5607 9.22028 16.0041 9.21497 16.0041 9.57809V16.8859C16.0041 17.0683 15.8557 17.2167 15.6733 17.2167H15.1123C14.9299 17.2167 14.7815 17.0683 14.7815 16.8859V0.89134C14.7815 0.708947 14.9299 0.560547 15.1123 0.560547H15.6733C15.8557 0.560547 16.0041 0.708947 16.0041 0.89134V7.87109C16.0041 8.2289 16.5607 8.23421 16.5607 7.87109V3.82654H17.2752C17.429 3.82654 17.5536 3.70197 17.5536 3.54822V3.18073H18.4434V3.54822C18.4434 3.70193 18.5679 3.82654 18.7217 3.82654ZM0.686523 13.3262H0.87207C0.933449 13.3262 0.983398 13.3761 0.983398 13.4375C0.983398 13.4989 0.933449 13.5488 0.87207 13.5488H0.686523C0.625145 13.5488 0.575195 13.4989 0.575195 13.4375C0.575195 13.3761 0.625145 13.3262 0.686523 13.3262ZM1.00195 16.666C1.00195 16.7888 0.902092 16.8887 0.779297 16.8887C0.656502 16.8887 0.556641 16.7888 0.556641 16.666V15.293H1.00195V16.666ZM18.1279 13.3262H18.3135C18.3749 13.3262 18.4248 13.3761 18.4248 13.4375C18.4248 13.4989 18.3749 13.5488 18.3135 13.5488H18.1279C18.0666 13.5488 18.0166 13.4989 18.0166 13.4375C18.0166 13.3761 18.0666 13.3262 18.1279 13.3262ZM18.4434 15.293V16.666C18.4434 16.7888 18.3435 16.8887 18.2207 16.8887C18.0979 16.8887 17.998 16.7888 17.998 16.666V15.293H18.4434ZM14.2248 2.53491V3.2699H13.6143V2.53491H14.2248ZM12.7268 17.2328H12.1659C11.9835 17.2328 11.8351 17.0844 11.8351 16.902V0.907482C11.8351 0.725053 11.9835 0.576652 12.1659 0.576652H12.7268C12.9093 0.576652 13.0577 0.725053 13.0577 0.907482V16.9021C13.0577 17.0844 12.9093 17.2328 12.7268 17.2328ZM9.78051 17.2328H9.21953C9.0371 17.2328 8.8887 17.0844 8.8887 16.902V13.252C8.8887 12.8941 8.33206 12.8888 8.33206 13.252V14.755H7.72153V3.82654H8.33206V11.7305C8.33206 12.0883 8.8887 12.0935 8.8887 11.7305V0.907482C8.8887 0.725053 9.0371 0.576652 9.21953 0.576652H9.78051C9.9629 0.576652 10.1113 0.725053 10.1113 0.907482V16.9021C10.1113 17.0844 9.9629 17.2328 9.78051 17.2328ZM6.8341 17.2328H6.27312C6.09069 17.2328 5.94229 17.0844 5.94229 16.902V0.907482C5.94229 0.725053 6.09069 0.576652 6.27312 0.576652H6.8341C7.01653 0.576652 7.16493 0.725053 7.16493 0.907482V16.9021C7.16493 17.0844 7.01653 17.2328 6.8341 17.2328ZM4.49684 6.14551C4.34313 6.14551 4.21852 6.27008 4.21852 6.42383V16.902C4.21852 17.0844 4.07012 17.2328 3.88769 17.2328H3.32674C3.14435 17.2328 2.99595 17.0844 2.99595 16.902V0.907482C2.99595 0.725053 3.14435 0.576652 3.32674 0.576652H3.88773C4.07016 0.576652 4.21856 0.725053 4.21856 0.907482V4.79102C4.21856 5.14838 4.7752 5.1489 4.7752 4.79102V3.82654H5.38572V14.755H4.7752V6.42383C4.77516 6.27008 4.65055 6.14551 4.49684 6.14551ZM10.6679 3.82654H11.2785V14.755H10.6679V3.82654ZM13.6143 3.82654H14.2248V14.755H13.6143V3.82654ZM11.2785 2.53491V3.2699H10.6679V2.53491H11.2785ZM8.33206 2.53491V3.2699H7.72153V2.53491H8.33206ZM5.38568 2.53491V3.2699H4.77516V2.53491H5.38568ZM2.00313 3.2699V2.53491H2.43931V3.2699H2.00313ZM4.77516 16.0466V15.3116H5.38568V16.0466H4.77516ZM7.72157 16.0466V15.3116H8.33209V16.0466H7.72157ZM10.6679 16.0466V15.3116H11.2785V16.0466H10.6679ZM13.6143 16.0466V15.3116H14.2248V16.0466H13.6143ZM16.9969 3.2699H16.5607V2.53491H16.9969V3.2699Z" fill="white"/>
</svg>
