<svg width="16" height="20" viewBox="0 0 16 20" fill="none" xmlns="http://www.w3.org/2000/svg">
<path d="M14 0.00999999L2 0C0.9 0 0 0.89 0 2V18C0 19.1 0.9 20 2 20H14C15.1 20 16 19.1 16 18V2C16 0.89 15.1 0.00999999 14 0.00999999ZM13 18H3C2.45 18 2 17.55 2 17V9.98C2 9.43 2.45 8.98 3 8.98H13C13.55 8.98 14 9.43 14 9.98V17C14 17.55 13.55 18 13 18ZM13 7H3C2.45 7 2 6.55 2 6V3C2 2.45 2.45 2 3 2H13C13.55 2 14 2.45 14 3V6C14 6.55 13.55 7 13 7ZM5 3C5.55 3 6 3.45 6 4V5C6 5.55 5.55 6 5 6C4.45 6 4 5.55 4 5V4C4 3.45 4.45 3 5 3ZM5 10C5.55 10 6 10.45 6 11V14C6 14.55 5.55 15 5 15C4.45 15 4 14.55 4 14V11C4 10.45 4.45 10 5 10Z" fill="#F2F0F0"/>
</svg>
