<svg width="22" height="20" viewBox="0 0 22 20" fill="none" xmlns="http://www.w3.org/2000/svg">
<path d="M20 3.99922H12.41L15.35 1.05922C15.55 0.859219 15.55 0.549219 15.35 0.349219C15.15 0.149219 14.84 0.149219 14.64 0.349219L11 3.98922L7.36 0.349219C7.16 0.149219 6.85 0.149219 6.65 0.349219C6.45 0.549219 6.45 0.859219 6.65 1.05922L9.59 3.99922H2C0.9 3.99922 0 4.88922 0 5.99922V17.9992C0 19.0992 0.9 19.9992 2 19.9992H20C21.1 19.9992 22 19.0992 22 17.9992V5.99922C22 4.88922 21.1 3.99922 20 3.99922ZM19 17.9992H3C2.45 17.9992 2 17.5492 2 16.9992V6.99922C2 6.44922 2.45 5.99922 3 5.99922H19C19.55 5.99922 20 6.44922 20 6.99922V16.9992C20 17.5492 19.55 17.9992 19 17.9992Z" fill="#F2F0F0"/>
</svg>
