<svg width="17" height="21" viewBox="0 0 17 21" fill="none" xmlns="http://www.w3.org/2000/svg">
<path d="M5.78759 15.1301C7.28259 16.6251 9.71676 16.6251 11.2118 15.1301C12.7068 13.6351 12.7068 11.2009 11.2118 9.70589L5.78759 15.1301ZM14.2497 0.927552L2.74967 0.917969C1.68592 0.917969 0.833008 1.77089 0.833008 2.83464V18.168C0.833008 19.2317 1.68592 20.0846 2.74967 20.0846H14.2497C15.3134 20.0846 16.1663 19.2317 16.1663 18.168V2.83464C16.1663 1.77089 15.3134 0.927552 14.2497 0.927552ZM6.58301 2.83464C7.11009 2.83464 7.54134 3.26589 7.54134 3.79297C7.54134 4.32005 7.11009 4.7513 6.58301 4.7513C6.05592 4.7513 5.62467 4.32005 5.62467 3.79297C5.62467 3.26589 6.05592 2.83464 6.58301 2.83464ZM3.70801 2.83464C4.23509 2.83464 4.66634 3.26589 4.66634 3.79297C4.66634 4.32005 4.23509 4.7513 3.70801 4.7513C3.18092 4.7513 2.74967 4.32005 2.74967 3.79297C2.74967 3.26589 3.18092 2.83464 3.70801 2.83464ZM8.49967 18.168C5.32759 18.168 2.74967 15.5901 2.74967 12.418C2.74967 9.24589 5.32759 6.66797 8.49967 6.66797C11.6718 6.66797 14.2497 9.24589 14.2497 12.418C14.2497 15.5901 11.6718 18.168 8.49967 18.168Z" fill="white"/>
</svg>
